<svg width="279" height="248" viewBox="0 0 279 248" fill="none" xmlns="http://www.w3.org/2000/svg">
<path d="M18.493 105.45C18.5643 104.85 19.4357 104.85 19.5071 105.45L20.1049 110.489C20.8768 116.994 26.0059 122.123 32.5114 122.895L37.5495 123.493C38.1502 123.564 38.1502 124.436 37.5495 124.507L32.5114 125.105C26.0059 125.877 20.8768 131.006 20.1049 137.511L19.5071 142.549C19.4357 143.15 18.5643 143.15 18.493 142.549L17.8952 137.511C17.1233 131.006 11.9941 125.877 5.48856 125.105L0.450447 124.507C-0.150108 124.436 -0.150108 123.564 0.450447 123.493L5.48856 122.895C11.9941 122.123 17.1233 116.994 17.8952 110.489L18.493 105.45Z" fill="#F2994A" fill-opacity="0.2"/>
<path d="M248.713 152.699C248.823 151.767 250.177 151.767 250.287 152.699L251.215 160.522C252.414 170.622 260.378 178.586 270.478 179.785L278.301 180.713C279.233 180.823 279.233 182.177 278.301 182.287L270.478 183.215C260.378 184.414 252.414 192.378 251.215 202.478L250.287 210.301C250.177 211.233 248.823 211.233 248.713 210.301L247.785 202.478C246.586 192.378 238.622 184.414 228.522 183.215L220.699 182.287C219.767 182.177 219.767 180.823 220.699 180.713L228.522 179.785C238.622 178.586 246.586 170.622 247.785 160.522L248.713 152.699Z" fill="#F2994A" fill-opacity="0.2"/>
<path d="M236.76 32.2134C236.794 31.9289 237.206 31.9289 237.24 32.2134L237.523 34.5998C237.889 37.6814 240.319 40.111 243.4 40.4767L245.787 40.7598C246.071 40.7936 246.071 41.2064 245.787 41.2402L243.4 41.5234C240.319 41.889 237.889 44.3186 237.523 47.4002L237.24 49.7866C237.206 50.0712 236.794 50.0712 236.76 49.7866L236.477 47.4002C236.111 44.3186 233.681 41.889 230.6 41.5234L228.213 41.2402C227.929 41.2064 227.929 40.7936 228.213 40.7598L230.6 40.4767C233.681 40.111 236.111 37.6814 236.477 34.5998L236.76 32.2134Z" fill="#F2994A" fill-opacity="0.2"/>
<path d="M147 0L147.024 123.878L194.453 9.4389L147.069 123.897L234.681 36.3188L147.103 123.931L261.561 76.547L147.122 123.976L271 124L147.122 124.024L261.561 171.453L147.103 124.069L234.681 211.681L147.069 124.103L194.453 238.561L147.024 124.122L147 248L146.976 124.122L99.547 238.561L146.931 124.103L59.3188 211.681L146.897 124.069L32.4389 171.453L146.878 124.024L23 124L146.878 123.976L32.4389 76.547L146.897 123.931L59.3188 36.3188L146.931 123.897L99.547 9.4389L146.976 123.878L147 0Z" fill="#F0C3D2" stroke="url(#paint0_radial_70_771)" stroke-opacity="0.5" stroke-width="4"/>
<defs>
<radialGradient id="paint0_radial_70_771" cx="0" cy="0" r="1" gradientUnits="userSpaceOnUse" gradientTransform="translate(147 124) rotate(90) scale(124)">
<stop stop-color="#EBA365"/>
<stop offset="1" stop-color="#EBA365" stop-opacity="0"/>
</radialGradient>
</defs>
</svg>
