<svg width="25" height="25" viewBox="0 0 25 25" fill="none" xmlns="http://www.w3.org/2000/svg">
<g clip-path="url(#clip0_27_504)">
<path d="M20.9032 9.57723L20.9265 9.6019L20.9514 9.62494C22.5372 11.093 23.7389 13.8616 21.9366 16.848C20.8947 18.5736 19.3437 19.5088 17.5621 19.5827L17.5598 19.5828C16.8959 19.6118 16.5522 19.5041 16.3128 19.3737L14.677 18.4825L14.8381 20.3383C14.8858 20.8871 15.0915 21.2705 15.3599 21.7396C15.3601 21.7399 15.3602 21.7402 15.3604 21.7404L16.0358 22.9245L16.0376 22.9275C16.1036 23.0423 16.1038 23.1906 16.0358 23.3076L16.0353 23.3084C15.9674 23.4256 15.8382 23.5001 15.7024 23.5001H9.98104C9.84517 23.5001 9.716 23.4256 9.6481 23.3084L9.64756 23.3075C9.57979 23.1909 9.57917 23.0414 9.64622 22.924L10.3231 21.7402L10.3233 21.7399C10.629 21.205 10.8288 20.8168 10.8542 20.1967L10.9269 18.4228L9.37218 19.2801C9.01467 19.4772 8.57465 19.6124 7.82645 19.5835L7.82629 19.5835C6.08571 19.5167 4.66947 18.6024 3.60265 16.6155L3.60263 16.6155C2.25866 14.1127 2.69438 11.3784 4.63664 9.57736L4.6587 9.5569L4.67948 9.53517L12.067 1.80872C12.534 1.395 13.1306 1.41473 13.5332 1.76296L20.9032 9.57723Z" stroke="#D69358" stroke-width="2"/>
</g>
<defs>
<clipPath id="clip0_27_504">
<rect width="24" height="24" fill="white" transform="translate(0.833344 0.5)"/>
</clipPath>
</defs>
</svg>
