<svg width="25" height="25" viewBox="0 0 25 25" fill="none" xmlns="http://www.w3.org/2000/svg">
<path d="M1.26667 5.5C1.26667 3.34609 3.01276 1.6 5.16667 1.6H19.1667C21.3206 1.6 23.0667 3.34609 23.0667 5.5V19.5C23.0667 21.6539 21.3206 23.4 19.1667 23.4H5.16667C3.01276 23.4 1.26667 21.6539 1.26667 19.5V5.5Z" stroke="#D69358" stroke-width="2.2"/>
<path d="M7.84951 18.4648C8.55995 18.6101 9.29295 18.296 9.4867 17.7632L10.3096 15.5001H14.091L14.914 17.7632C15.1077 18.296 15.8407 18.6102 16.5512 18.4648C17.2616 18.3195 17.6805 17.7698 17.4867 17.2369L13.4866 6.23692C13.4865 6.23631 13.4861 6.23575 13.486 6.23519C13.481 6.22169 13.4756 6.20833 13.4699 6.19502C13.4685 6.19178 13.4673 6.1885 13.4658 6.18527C13.4611 6.17462 13.456 6.16413 13.4508 6.15363C13.448 6.14786 13.4453 6.14205 13.4424 6.13637C13.4393 6.13033 13.4358 6.12442 13.4325 6.11842C13.3698 6.00419 13.2811 5.90242 13.173 5.81603C13.1709 5.8143 13.1688 5.81252 13.1666 5.81078C13.159 5.80469 13.1509 5.79888 13.143 5.79297C13.1351 5.78702 13.1273 5.78102 13.1193 5.77525C13.117 5.77361 13.1146 5.77211 13.1123 5.77047C12.9971 5.68937 12.8614 5.62291 12.7091 5.57589C12.7011 5.57341 12.6932 5.57083 12.6851 5.56844C12.6775 5.56623 12.6698 5.56422 12.6621 5.56211C12.6481 5.55822 12.6341 5.55437 12.62 5.55086C12.6156 5.54978 12.6113 5.54884 12.607 5.54781C12.5892 5.54355 12.5714 5.53947 12.5534 5.53577C12.5526 5.53563 12.5518 5.53539 12.5511 5.53525C12.5491 5.53487 12.5472 5.53455 12.5453 5.53417C12.5261 5.53028 12.5068 5.52672 12.4873 5.52348C12.4844 5.52302 12.4815 5.52255 12.4785 5.52208C12.4599 5.51908 12.4412 5.51636 12.4224 5.51397C12.4182 5.51345 12.414 5.51298 12.4098 5.51247C12.3926 5.51041 12.3755 5.50858 12.3583 5.50703C12.3523 5.50647 12.3463 5.50605 12.3403 5.50553C12.3251 5.50431 12.31 5.50328 12.2948 5.50248C12.2866 5.50206 12.2785 5.50169 12.2703 5.50136C12.2575 5.50084 12.2447 5.50047 12.2318 5.50023C12.2213 5.50005 12.2108 5.5 12.2003 5.5C12.1898 5.5 12.1794 5.50005 12.1688 5.50023C12.156 5.50047 12.1431 5.50089 12.1303 5.50136C12.1221 5.50169 12.114 5.50202 12.1058 5.50248C12.0906 5.50328 12.0755 5.50436 12.0604 5.50553C12.0544 5.506 12.0484 5.50647 12.0424 5.50703C12.0251 5.50858 12.008 5.51041 11.9909 5.51247C11.9867 5.51298 11.9825 5.51345 11.9783 5.51397C11.9595 5.51636 11.9408 5.51908 11.9221 5.52208C11.9192 5.52255 11.9163 5.52297 11.9133 5.52348C11.8939 5.52672 11.8746 5.53028 11.8554 5.53417C11.8535 5.53455 11.8515 5.53483 11.8496 5.53525C11.8488 5.53539 11.848 5.53563 11.8473 5.53577C11.8293 5.53947 11.8115 5.54355 11.7937 5.54781C11.7894 5.54884 11.785 5.54978 11.7807 5.55086C11.7665 5.55437 11.7525 5.55822 11.7385 5.56211C11.7308 5.56422 11.7231 5.56623 11.7155 5.56844C11.7075 5.57078 11.6996 5.57341 11.6916 5.57589C11.5393 5.62291 11.4036 5.68937 11.2884 5.77047C11.2861 5.77206 11.2837 5.77361 11.2814 5.77525C11.2733 5.78102 11.2655 5.78706 11.2576 5.79297C11.2497 5.79888 11.2417 5.80473 11.234 5.81078C11.2318 5.81247 11.2298 5.8143 11.2276 5.81603C11.1195 5.90237 11.0309 6.00419 10.9682 6.11842C10.9649 6.12442 10.9615 6.13033 10.9583 6.13637C10.9553 6.14209 10.9526 6.14791 10.9498 6.15363C10.9446 6.16413 10.9395 6.17462 10.9348 6.18527C10.9334 6.1885 10.9321 6.19178 10.9308 6.19502C10.9251 6.20833 10.9196 6.22169 10.9147 6.23519C10.9145 6.2358 10.9142 6.23636 10.914 6.23692L6.91401 17.2369C6.72019 17.7698 7.13907 18.3195 7.84951 18.4648ZM11.0369 13.5001L12.2003 10.3007L13.3638 13.5001H11.0369Z" fill="#D69358"/>
</svg>
