<svg width="25" height="25" viewBox="0 0 25 25" fill="none" xmlns="http://www.w3.org/2000/svg">
<path d="M19.8933 19.17L17.7533 14.9L15.6133 19.17M16.0033 18.41H19.5233" stroke="#D69358" stroke-width="1.5" stroke-linecap="round" stroke-linejoin="round"/>
<path d="M9.84334 6.35H5.78334M7.80334 5.67V6.35M17.7533 22.5C17.0861 22.4999 16.4254 22.3683 15.809 22.1129C15.1926 21.8574 14.6325 21.483 14.1608 21.0111C13.6891 20.5392 13.315 19.979 13.0597 19.3625C12.8045 18.746 12.6732 18.0852 12.6733 17.418C12.6735 16.7508 12.805 16.0901 13.0605 15.4737C13.316 14.8573 13.6903 14.2972 14.1622 13.8255C14.6341 13.3538 15.1943 12.9796 15.8109 12.7244C16.4274 12.4692 17.0881 12.3379 17.7553 12.338C19.1029 12.3383 20.3952 12.8738 21.3479 13.8269C22.3005 14.78 22.8356 16.0724 22.8353 17.42C22.8351 18.7676 22.2995 20.0598 21.3464 21.0125C20.3934 21.9652 19.1009 22.5003 17.7533 22.5V22.5ZM5.85334 2.5H9.77334C11.8433 2.5 12.8433 3.5 12.7933 5.52V9.44C12.8433 11.51 11.8433 12.51 9.77334 12.46H5.85334C3.83334 12.5 2.83334 11.5 2.83334 9.43V5.51C2.83334 3.5 3.83334 2.5 5.85334 2.5Z" stroke="#D69358" stroke-width="1.5" stroke-linecap="round" stroke-linejoin="round"/>
<path d="M8.82335 6.34003C8.82335 8.09003 7.45335 9.51003 5.77335 9.51003" stroke="#D69358" stroke-width="1.5" stroke-linecap="round" stroke-linejoin="round"/>
<path d="M9.84334 9.51C9.11334 9.51 8.45334 9.12 7.99334 8.5M2.83334 15.5C2.83334 19.37 5.96334 22.5 9.83334 22.5L8.78334 20.75M22.8333 9.5C22.8333 5.63 19.7033 2.5 15.8333 2.5L16.8833 4.25" stroke="#D69358" stroke-width="1.5" stroke-linecap="round" stroke-linejoin="round"/>
</svg>
